<?xml version="1.0" standalone="no"?>
<!DOCTYPE svg PUBLIC "-//W3C//DTD SVG 20010904//EN"
 "http://www.w3.org/TR/2001/REC-SVG-20010904/DTD/svg10.dtd">
<svg version="1.0" xmlns="http://www.w3.org/2000/svg"
 width="1024.000000pt" height="1024.000000pt" viewBox="0 0 1024.000000 1024.000000"
 preserveAspectRatio="xMidYMid meet">
<metadata>
Created by potrace 1.16, written by Peter Selinger 2001-2019
</metadata>
<g transform="translate(0.000000,1024.000000) scale(0.100000,-0.100000)"
fill="#000000" stroke="none">
<path d="M5126 8564 c-14 -279 -33 -378 -100 -519 -52 -107 -124 -211 -215
-308 -99 -106 -105 -116 -56 -88 22 13 82 56 133 95 177 136 234 176 253 176
17 0 19 -9 19 -101 0 -100 0 -101 -30 -129 -40 -37 -71 -46 -210 -60 -287 -29
-581 -118 -860 -260 -41 -21 -172 -95 -290 -164 -240 -141 -273 -155 -316
-135 -26 13 -94 91 -94 108 0 4 35 18 78 30 42 13 145 51 229 86 83 35 200 75
260 90 160 39 257 73 301 105 50 36 82 101 82 166 0 125 56 219 164 274 83 42
94 60 39 60 -75 0 -169 -69 -209 -155 -19 -40 -24 -67 -24 -131 0 -71 -3 -85
-29 -126 -17 -26 -41 -54 -56 -64 -14 -9 -83 -31 -153 -49 -154 -40 -176 -48
-319 -113 -140 -65 -233 -91 -350 -99 l-92 -6 -66 61 c-55 52 -125 102 -125
89 0 -2 18 -23 41 -48 22 -24 48 -55 56 -68 16 -21 15 -24 -1 -33 -43 -24 -35
-103 12 -115 14 -3 38 -1 54 5 26 9 30 8 37 -11 5 -12 23 -62 42 -110 37 -98
38 -85 -15 -212 -12 -31 -13 -35 -2 -20 46 62 47 63 34 25 -6 -19 -46 -89 -88
-155 -103 -160 -160 -262 -213 -381 -53 -117 -117 -287 -117 -308 0 -28 -110
-231 -162 -300 -56 -72 -103 -115 -115 -103 -4 4 -2 47 4 95 11 86 10 102 -18
222 -17 77 -6 118 54 205 140 205 183 291 193 394 10 90 -10 160 -66 236 -27
37 -52 83 -56 102 -7 36 0 134 12 169 3 10 -5 3 -18 -16 -19 -29 -23 -48 -23
-112 0 -43 -2 -78 -5 -78 -3 0 -23 14 -44 30 -22 17 -49 30 -60 30 -16 0 0
-19 62 -76 95 -88 126 -135 142 -220 22 -112 -26 -245 -137 -384 -105 -131
-116 -171 -83 -300 18 -69 21 -98 15 -155 -10 -94 -10 -127 -1 -147 6 -14 -4
-23 -57 -49 l-66 -33 -42 19 c-98 45 -128 117 -110 265 12 94 3 146 -29 175
-21 19 -21 19 -5 -11 19 -37 19 -68 -1 -167 -23 -114 -9 -174 55 -238 25 -25
53 -48 61 -51 10 -4 12 -9 5 -16 -11 -11 -210 -62 -325 -83 l-75 -14 210 -5
210 -5 17 -109 c9 -59 25 -129 35 -154 27 -72 116 -157 273 -262 140 -94 142
-96 176 -165 19 -38 43 -86 54 -105 11 -19 33 -89 50 -155 49 -189 98 -291
220 -457 l48 -65 158 -7 c88 -3 179 -9 204 -13 l45 -6 -58 53 c-76 69 -193
209 -265 318 -317 474 -409 1045 -262 1632 71 283 205 555 387 780 133 164
347 350 533 462 509 307 1159 380 1724 193 317 -105 569 -259 802 -490 344
-341 531 -724 594 -1220 14 -106 14 -409 0 -521 -53 -445 -232 -811 -564
-1153 l-81 -83 45 6 c25 4 124 15 221 25 97 10 181 21 187 25 5 3 37 50 70
103 58 94 122 170 122 144 0 -6 -6 -24 -14 -39 -30 -59 -25 -74 6 -19 88 154
174 227 265 227 196 0 526 -265 647 -520 65 -137 59 -212 -25 -304 -28 -31
-48 -56 -45 -56 4 0 24 9 45 20 132 67 173 169 132 331 -32 126 -96 245 -231
424 -184 245 -226 340 -218 491 4 70 9 90 34 131 48 78 134 123 211 108 27 -5
51 -20 84 -54 71 -73 85 -154 44 -256 -6 -14 -5 -17 3 -10 6 6 18 36 26 67 46
177 -85 338 -276 338 -63 0 -133 -28 -213 -84 l-65 -47 0 53 c0 96 47 166 187
277 45 36 73 84 73 125 l0 26 198 1 197 1 -135 27 c-149 31 -305 80 -360 114
-79 48 -150 110 -150 131 0 12 -12 64 -26 116 -33 120 -35 186 -5 272 28 80
25 105 -25 208 -58 120 -74 176 -74 257 0 150 73 232 209 236 45 1 56 -3 72
-22 38 -46 24 -84 -62 -177 -57 -61 -67 -93 -48 -148 21 -60 44 -54 40 9 -2
54 -8 43 100 193 54 76 48 155 -15 183 -20 10 -22 16 -18 63 5 61 -22 124 -93
216 -49 64 -94 106 -58 55 42 -60 103 -194 109 -236 7 -58 -8 -77 -78 -93 -86
-20 -143 -58 -178 -119 -58 -102 -50 -189 35 -382 70 -160 71 -165 39 -265
-30 -97 -29 -130 12 -253 14 -43 24 -81 21 -83 -9 -9 -106 135 -148 219 -22
43 -60 130 -84 194 -64 163 -149 339 -235 478 -40 66 -81 134 -91 150 -10 17
-25 48 -34 70 -16 37 -13 35 53 -36 40 -42 90 -84 117 -98 63 -31 143 -34 182
-5 38 28 70 87 78 143 3 25 16 64 27 86 l20 40 -21 -19 c-20 -18 -39 -62 -60
-143 -7 -26 -24 -53 -46 -72 -69 -61 -162 -34 -264 74 -90 97 -114 144 -109
210 8 95 101 253 234 397 24 26 44 50 44 53 0 14 -93 -55 -227 -167 -51 -42
-105 -84 -121 -92 l-30 -15 -28 57 c-37 77 -151 190 -229 228 -56 27 -68 29
-188 30 l-127 2 -40 61 c-53 81 -112 144 -185 196 -116 82 -211 121 -460 186
-82 22 -159 46 -172 54 -35 24 -58 65 -58 108 0 78 87 119 186 86 68 -23 70
-39 7 -78 -71 -43 -33 -53 50 -14 104 49 17 155 -128 157 -64 0 -98 -18 -141
-78 -35 -47 -37 -91 -9 -147 23 -44 61 -72 123 -88 345 -87 455 -126 564 -197
77 -51 161 -137 208 -214 l38 -62 81 6 c144 12 256 -25 354 -118 58 -55 126
-160 118 -182 -9 -23 -98 -17 -159 10 -30 13 -121 64 -203 113 -202 123 -281
165 -406 217 -218 91 -450 152 -673 177 -140 15 -150 23 -150 117 l0 67 29 -2
c16 -1 75 -32 135 -72 100 -67 178 -107 187 -98 3 2 -15 17 -38 32 -23 16 -77
62 -118 104 -62 62 -85 95 -128 181 -64 129 -87 219 -107 425 -17 174 -33 282
-45 304 -4 7 -10 -49 -14 -125z m2492 -3021 c60 -42 76 -65 68 -97 -12 -50
-119 -64 -161 -21 -21 20 -25 34 -25 83 0 32 3 62 7 65 16 17 61 4 111 -30z
m-4928 -208 c22 -13 61 -96 80 -166 17 -66 19 -69 19 -34 0 22 -6 71 -14 110
-20 94 -20 95 15 95 35 0 32 9 54 -185 9 -77 27 -192 40 -255 13 -63 22 -116
21 -118 -7 -8 -251 164 -292 204 -51 52 -93 134 -93 184 0 40 21 125 40 159
11 21 17 23 66 18 29 -3 58 -8 64 -12z m5100 -12 c0 -20 -22 -50 -94 -122 -51
-53 -103 -115 -115 -139 -29 -57 -36 -126 -19 -177 l13 -40 -107 -108 c-60
-60 -108 -102 -108 -94 0 8 6 33 14 55 25 69 64 260 81 387 15 119 45 206 80
235 23 19 72 28 168 29 l87 1 0 -27z m-310 -734 c0 -46 -114 -207 -177 -250
-52 -36 -54 -27 -17 66 21 53 40 78 96 130 67 62 98 79 98 54z m129 -192 c43
-94 41 -96 -32 -44 -16 11 -48 27 -72 36 l-44 17 41 69 41 69 13 -30 c7 -16
31 -68 53 -117z"/>
<path d="M5136 7058 c-15 -158 -62 -280 -157 -409 -70 -95 -160 -176 -370
-335 -143 -108 -224 -178 -364 -319 -223 -224 -341 -306 -540 -378 -91 -32
-279 -74 -375 -83 -114 -10 -125 -20 -32 -28 119 -10 264 -50 372 -103 82 -40
109 -60 195 -147 78 -79 114 -125 164 -211 175 -298 310 -454 591 -680 91 -73
191 -160 223 -194 166 -180 245 -359 278 -629 7 -56 14 -101 16 -99 2 2 8 44
14 93 43 353 170 556 534 852 237 194 384 357 524 581 99 160 129 200 200 275
148 155 345 242 601 265 l85 7 -70 8 c-309 35 -496 96 -690 224 -38 26 -149
123 -245 217 -206 201 -270 257 -462 401 -235 178 -365 324 -423 478 -14 36
-31 113 -38 171 -8 58 -16 108 -19 111 -3 2 -8 -28 -12 -68z m271 -674 c-1 -1
-42 7 -92 17 -49 10 -103 19 -119 19 l-28 0 17 28 c10 15 29 42 43 61 l25 33
78 -78 c43 -43 77 -79 76 -80z m-140 -119 c177 -17 380 -114 516 -248 118
-116 201 -261 243 -424 23 -89 25 -112 21 -243 -4 -119 -9 -161 -31 -233 -83
-278 -268 -483 -531 -587 -173 -69 -390 -82 -569 -36 -419 109 -686 444 -687
861 0 268 95 494 279 666 153 143 333 226 539 248 76 8 92 8 220 -4z m-1147
-612 c-15 -42 -36 -83 -46 -90 -30 -19 -133 -43 -188 -43 -62 0 -60 2 84 93
58 36 119 78 135 91 17 14 33 25 36 26 3 0 -6 -35 -21 -77z m2129 3 c43 -35
110 -83 149 -106 l70 -41 -85 -82 c-47 -45 -104 -110 -127 -144 l-42 -61 0
156 c0 136 -3 170 -25 250 -14 50 -24 92 -22 92 1 0 38 -29 82 -64z m-2241
-218 c29 -17 57 -40 61 -52 8 -20 22 -186 16 -186 -1 0 -25 30 -53 68 -27 37
-86 106 -131 154 -45 47 -81 88 -81 91 0 9 136 -45 188 -75z m1387 -1130 c-33
-28 -104 -96 -157 -151 l-98 -100 -42 49 c-23 27 -85 93 -137 147 -52 53 -93
97 -90 97 2 0 39 -7 82 -15 105 -20 281 -18 382 4 125 28 127 27 60 -31z"/>
<path d="M5111 6068 c-5 -29 -27 -138 -47 -243 -20 -104 -42 -204 -49 -221
-11 -26 -26 -36 -96 -64 -46 -18 -102 -42 -124 -53 l-40 -20 91 -22 c109 -27
166 -55 181 -88 24 -52 83 -401 70 -413 -13 -13 -122 16 -193 51 -183 89 -286
261 -287 475 0 199 77 358 213 439 57 34 23 24 -54 -16 -187 -99 -295 -293
-296 -534 0 -100 26 -216 67 -292 81 -152 279 -266 505 -292 l56 -6 9 -72 c10
-76 16 -70 28 26 l6 47 42 0 c81 0 230 38 314 80 199 98 295 268 295 520 0
248 -104 430 -304 531 -73 37 -85 37 -27 1 129 -83 199 -232 199 -423 -1 -156
-59 -289 -175 -398 -86 -79 -218 -140 -307 -141 -25 0 -27 3 -23 28 3 15 17
94 30 175 32 194 40 222 72 247 33 26 118 51 183 53 27 1 50 5 50 8 0 3 -54
31 -120 62 l-120 57 -14 53 c-8 28 -33 142 -56 252 -53 253 -51 245 -60 245
-5 0 -13 -24 -19 -52z"/>
<path d="M4205 6396 c-37 -16 -218 -207 -240 -252 -19 -41 -19 -98 1 -118 19
-20 66 -21 102 -2 29 16 239 225 266 266 53 81 -30 149 -129 106z"/>
<path d="M5969 6376 c-42 -14 -58 -51 -40 -94 13 -30 208 -212 284 -264 48
-33 85 -35 121 -7 20 16 26 29 26 60 0 58 -19 87 -105 159 -179 151 -215 169
-286 146z"/>
<path d="M7990 5980 c-29 -29 -26 -74 6 -99 33 -26 55 -26 85 -3 28 23 30 73
4 102 -23 26 -69 26 -95 0z"/>
<path d="M2330 4924 c0 -30 22 -55 85 -95 166 -104 256 -289 228 -468 -22
-144 -76 -210 -280 -344 -101 -67 -147 -105 -204 -169 -199 -223 -263 -342
-262 -493 1 -152 49 -218 225 -306 129 -65 222 -123 248 -156 11 -15 28 -51
36 -82 36 -125 77 -161 181 -161 73 0 134 28 228 104 100 80 155 106 229 106
34 0 79 -5 101 -11 70 -19 298 -129 353 -170 29 -22 72 -46 96 -53 24 -7 63
-27 88 -44 24 -17 76 -46 114 -64 47 -24 91 -57 139 -105 97 -97 125 -105 360
-107 l180 -2 140 -46 c321 -105 377 -109 542 -34 55 24 129 50 164 56 35 6
106 20 157 32 133 30 235 23 319 -22 61 -32 64 -33 120 -22 71 14 192 73 304
147 54 36 110 64 158 78 48 14 76 28 80 40 4 10 20 27 36 38 17 12 23 19 15
16 -9 -3 -51 -15 -93 -26 -99 -28 -141 -46 -194 -82 -55 -38 -277 -138 -324
-145 -27 -5 -53 1 -107 25 -60 27 -82 31 -154 31 -46 0 -118 -8 -163 -19 -44
-11 -114 -24 -154 -30 -41 -7 -102 -23 -135 -37 -122 -51 -192 -74 -231 -74
-48 0 -254 49 -380 90 -75 25 -117 31 -250 39 -239 15 -298 39 -419 174 -74
82 -78 84 -211 123 -49 14 -117 42 -150 63 -68 42 -297 148 -364 168 -24 7
-76 13 -115 13 -85 -1 -146 -23 -256 -94 -91 -60 -187 -106 -218 -106 -57 0
-106 47 -156 152 -37 77 -83 114 -249 200 -78 39 -155 85 -173 100 -87 77
-104 240 -39 374 63 128 243 320 446 474 226 172 262 222 267 378 8 194 -76
343 -265 471 -45 30 -69 54 -71 69 -4 25 -22 30 -22 6z"/>
<path d="M6121 4653 c-151 -155 -177 -194 -166 -249 7 -42 38 -64 90 -64 57 0
101 31 205 144 105 114 130 157 130 221 0 58 -32 95 -82 95 -29 0 -48 -15
-177 -147z"/>
<path d="M3942 4767 c-30 -32 -30 -100 1 -155 29 -55 180 -226 220 -251 81
-49 167 -19 167 58 -1 49 -10 63 -128 193 -164 179 -211 207 -260 155z"/>
<path d="M2946 3868 c4 -7 16 -23 26 -35 49 -54 27 -151 -53 -230 l-40 -40
113 -17 c170 -26 339 -61 585 -122 442 -109 722 -216 941 -361 92 -61 111 -82
30 -33 -348 209 -1052 413 -1879 545 -128 20 -171 24 -193 15 -23 -9 -26 -13
-16 -25 7 -8 28 -15 47 -15 50 0 95 -26 91 -53 -5 -35 -101 -80 -155 -72 -40
6 -42 5 -58 -29 -9 -19 -23 -37 -31 -40 -23 -9 -16 -33 14 -44 15 -6 73 -23
128 -37 151 -37 193 -58 73 -35 -118 23 -276 39 -304 32 -42 -12 -21 -20 96
-37 429 -64 1134 -229 1559 -367 321 -104 534 -216 711 -377 l66 -60 44 13
c24 7 118 28 208 46 188 39 191 39 452 -27 l146 -36 69 54 c90 72 131 97 252
158 260 130 634 252 1118 365 363 84 659 144 869 177 360 56 395 73 282 131
-34 17 -46 18 -82 9 -40 -10 -245 -41 -269 -41 -6 0 7 11 29 23 48 27 55 54
21 86 l-25 24 -173 -28 c-242 -38 -736 -129 -903 -165 -184 -40 -483 -121
-615 -165 -127 -43 -121 -30 10 18 193 72 529 163 833 226 191 40 548 100 642
108 41 3 75 10 75 15 0 5 -7 23 -16 40 -9 17 -12 34 -7 39 4 4 48 19 98 32 70
19 84 25 64 30 -42 12 -82 7 -174 -18 -115 -32 -185 -33 -226 -3 -39 29 -85
101 -100 158 -11 41 -10 50 9 90 12 25 29 55 38 68 17 23 17 23 -7 18 -13 -3
-87 -8 -164 -11 -145 -6 -335 -25 -490 -50 -96 -15 -347 -68 -405 -85 -67 -20
-54 -9 24 20 43 16 82 33 85 36 17 18 -318 -51 -440 -91 -84 -28 -256 -120
-358 -192 -136 -97 -295 -281 -368 -428 -33 -64 -51 -124 -78 -249 -12 -52
-20 -74 -26 -65 -6 9 -9 -6 -10 -41 -1 -30 -4 -68 -8 -85 -10 -47 -32 121 -29
230 1 81 -1 95 -26 145 -78 152 -230 334 -371 441 -170 129 -312 195 -605 280
-164 48 -232 63 -340 75 -74 8 -192 21 -261 30 -137 16 -451 43 -512 44 -28 0
-36 -3 -31 -12z m717 -88 c387 -85 828 -285 1017 -460 35 -33 30 -30 -25 13
-166 129 -418 256 -682 342 -91 30 -350 103 -418 118 l-20 5 20 1 c11 0 60 -8
108 -19z m2651 -70 c-23 -10 -88 -35 -145 -55 -121 -44 -314 -138 -414 -202
-173 -112 -345 -262 -433 -378 -61 -81 -68 -87 -44 -40 36 71 123 187 191 253
158 155 374 273 711 387 162 55 204 66 134 35z m311 -39 c-419 -105 -582 -157
-744 -241 -95 -50 -238 -146 -303 -205 -53 -49 -67 -52 -23 -6 60 64 183 160
271 213 184 109 516 216 859 278 195 36 167 17 -60 -39z m25 -76 c-334 -98
-701 -232 -839 -306 -92 -50 -224 -152 -286 -221 -42 -47 -45 -49 -30 -18 28
54 123 147 210 205 202 133 475 239 900 346 252 64 275 61 45 -6z m-2805 20
c266 -60 525 -164 621 -250 l39 -36 -51 31 c-74 43 -296 130 -511 200 -104 33
-195 65 -203 70 -17 12 -15 11 105 -15z m-198 -76 c220 -53 391 -117 603 -225
117 -59 340 -196 340 -209 0 -3 -27 13 -60 35 -202 137 -611 311 -945 400 -66
18 -122 34 -125 37 -7 7 39 -2 187 -38z m-797 -134 c259 -42 851 -181 1086
-256 372 -118 675 -275 807 -418 67 -73 76 -95 15 -38 -60 54 -207 151 -376
245 -170 95 -313 146 -707 250 -262 70 -362 93 -780 182 -155 32 -215 49 -185
49 25 1 88 -6 140 -14z m3610 -86 c-276 -83 -359 -115 -577 -224 -125 -62
-266 -139 -312 -170 -47 -31 -79 -49 -71 -40 24 29 289 200 385 248 151 76
351 147 530 187 105 24 127 23 45 -1z m520 -149 c-80 -26 -367 -106 -715 -198
-286 -76 -577 -213 -714 -337 -23 -21 -41 -33 -41 -27 0 16 117 114 195 165
154 99 298 157 662 267 269 82 593 159 663 158 29 0 19 -5 -50 -28z m-3308
-70 c298 -75 508 -153 758 -280 196 -100 314 -187 334 -245 4 -12 -11 -2 -41
27 -134 129 -449 276 -959 448 -148 49 -264 90 -258 90 5 0 80 -18 166 -40z
m2858 -159 c-249 -83 -415 -148 -655 -255 -140 -63 -42 4 130 89 164 80 292
126 515 185 208 55 212 48 10 -19z"/>
<path d="M7896 3069 c-3 -35 -2 -82 4 -104 13 -54 14 -51 -23 -74 -19 -11 -57
-54 -87 -95 -68 -96 -89 -110 -163 -108 -68 1 -164 27 -189 49 -10 9 -18 30
-18 49 0 50 -24 59 -165 59 -66 1 -156 5 -201 9 -104 11 -150 3 -156 -27 -4
-22 -2 -22 67 -19 104 6 276 -30 340 -70 170 -106 178 -110 296 -129 76 -12
178 4 240 38 52 28 119 92 123 116 2 19 35 57 48 57 5 0 6 -4 3 -10 -3 -5 -4
-10 -1 -10 2 0 16 20 29 45 l26 45 -22 15 c-12 9 -40 28 -63 44 -40 28 -64 77
-64 132 0 13 -4 30 -9 38 -5 8 -11 -9 -15 -50z"/>
<path d="M2846 2508 c-53 -75 41 -161 102 -95 26 27 28 64 6 95 -21 31 -87 31
-108 0z"/>
</g>
</svg>
